<svg version="1.1" id="Layer_1" xmlns="http://www.w3.org/2000/svg" x="0px" y="0px"
	 viewBox="0 0 300 300" style="enable-background:new 0 0 300 300;" xmlSpace="preserve">
<path d="M166.09,101.72c0-0.78,0-1.44,0-2.1c0-12.11,0-24.23,0-36.34c0-4.46,0.86-5.03,4.97-3.33c19.5,8.09,32.19,22.23,36.69,42.87
	c4.66,21.34-1.03,40.13-16.29,55.77c-12.7,13.01-25.72,25.71-38.6,38.54c-2.61,2.6-4.82,2.6-7.43-0.01
	c-13.02-12.96-26.1-25.86-39.02-38.91C77.4,128.9,85.78,79.75,122.83,61.75c9.88-4.8,20.39-6.63,31.35-5.72
	c0.48,0.04,0.96,0.14,1.93,0.29c-0.25,5.64-0.13,11.28-0.83,16.81c-0.74,5.86-3.75,8.21-9.66,8.79
	c-21.07,2.08-36.59,17.61-38.45,38.47c-2.02,22.72,15.19,43.16,37.96,45.08c22.79,1.92,42.48-13.33,45.63-35.78
	c2-14.22-2.42-26.5-12.69-36.61c-0.37-0.37-0.83-0.66-1.63-1.29c0,1.07,0,1.72,0,2.37c0,6.99-0.01,13.99,0,20.98
	c0.03,20.79-19,35.06-37.62,32.39c-13.16-1.89-20.49-13.97-15.65-26.38c4.58-11.74,13.77-18.18,25.76-20.94
	c5.5-1.27,10.93-0.84,16.18,1.3C165.33,101.61,165.58,101.62,166.09,101.72z"/>
<path d="M120.7,243.91c-1.66,0-3.03,0.08-4.38-0.02c-1.74-0.12-2.77-1.26-3.51-2.74c-1.94-3.84-3.9-7.67-5.86-11.51
	c-0.27-0.52-0.6-1.01-1.29-1.43c-0.03,0.7-0.09,1.4-0.09,2.1c-0.01,2.99,0,5.99-0.01,8.98c-0.01,3.81-1.34,4.84-5.32,3.98
	c0-2.13,0-4.3,0-6.47c0.01-4.8-0.04-9.61,0.05-14.41c0.06-3.22,2.91-5.1,5.89-3.96c0.49,0.19,0.87,0.84,1.14,1.37
	c2.2,4.2,4.35,8.42,6.53,12.64c0.3,0.58,0.63,1.15,0.94,1.72c0.16-0.03,0.32-0.06,0.49-0.09c0-1.2,0-2.4,0-3.6
	c0-2.68-0.05-5.37,0.03-8.05c0.08-2.85,1.38-3.97,4.19-3.67c0.43,0.05,1.16,0.64,1.16,0.98C120.71,227.72,120.7,235.69,120.7,243.91
	z"/>
<path d="M60.49,231.35c-0.47,2.43-0.74,4.92-1.48,7.26c-0.85,2.67-2.93,4.44-5.68,4.9c-2.36,0.4-4.86,0.56-7.22,0.25
	c-3.82-0.5-6.31-2.87-7.2-6.67c-0.95-4.07-0.97-8.17,0.11-12.22c0.9-3.38,3.18-5.42,6.57-6.22c0.73-0.17,1.48-0.28,2.22-0.34
	c7.61-0.69,11.73,2.8,12.26,10.37c0.06,0.87,0.09,1.74,0.13,2.62C60.29,231.3,60.39,231.33,60.49,231.35z M44.45,231.05
	c0.09,0.01,0.17,0.02,0.26,0.02c0,1.18-0.04,2.37,0.02,3.54c0.03,0.55,0.21,1.1,0.41,1.62c0.7,1.79,1.94,2.84,3.95,2.86
	c2.08,0.02,3.56-0.81,4.18-2.76c1.07-3.4,1.07-6.88,0.01-10.28c-0.61-1.96-2.13-2.85-4.16-2.81c-2,0.05-3.49,1.05-3.99,3.03
	C44.72,227.83,44.66,229.46,44.45,231.05z"/>
<path d="M198.33,233.84c2.03,3.19,3.99,6.27,5.98,9.4c-4.46,1.1-6.63,0.24-8.83-3.36c-0.78-1.28-1.63-2.52-2.31-3.85
	c-0.64-1.26-1.5-1.75-3.09-1.2c0,1.27,0,2.63,0,3.98c-0.01,4.29-1.34,5.35-5.89,4.51c0-2.88,0-5.8,0-8.72
	c0-3.5-0.04-6.99,0.02-10.49c0.07-3.84,1.55-5.3,5.39-5.38c1.75-0.03,3.5-0.01,5.24,0.12c4.24,0.33,6.7,1.96,7.35,5.19
	C202.95,227.84,202.83,231.4,198.33,233.84z M190.09,230.09c1.36,0,2.42,0.09,3.46-0.02c1.39-0.14,2.56-0.75,2.85-2.27
	c0.27-1.45,0.32-3.16-1.23-3.76c-1.35-0.52-2.98-0.35-4.49-0.37c-0.19,0-0.55,0.69-0.56,1.07
	C190.06,226.47,190.09,228.2,190.09,230.09z"/>
<path d="M131.72,231c0-2.43-0.03-4.87,0-7.3c0.05-3.33,1.24-4.78,4.55-4.88c2.72-0.09,5.5,0.08,8.18,0.53
	c3.4,0.56,5.78,2.81,6.94,5.95c1.41,3.84,1.41,7.89,0.04,11.75c-1.08,3.03-3.36,5.29-6.57,5.86c-3.04,0.54-6.2,0.63-9.29,0.52
	c-2.39-0.08-3.78-2.06-3.84-4.74C131.68,236.12,131.72,233.56,131.72,231z M137.7,230.84c0,1.93-0.14,3.88,0.07,5.79
	c0.08,0.73,0.81,1.8,1.46,1.98c2.78,0.8,5.69-0.93,6.31-3.8c0.38-1.74,0.42-3.58,0.37-5.37c-0.11-3.97-2.44-6-6.43-5.84
	c-1.22,0.05-1.84,0.52-1.8,1.81C137.74,227.22,137.7,229.03,137.7,230.84z"/>
<path d="M70.14,218.82c1.13,0,2.07-0.1,2.99,0.02c2.01,0.25,2.89,1.32,2.92,3.64c0.06,3.62,0.01,7.24,0.03,10.86
	c0.01,0.87,0.05,1.75,0.21,2.6c0.39,2.11,1.78,3.22,3.77,3.12c1.97-0.1,3.35-1.36,3.44-3.5c0.14-3.43,0.07-6.86,0.12-10.29
	c0.02-1.31,0.02-2.63,0.25-3.91c0.37-2.05,3.53-3.52,5.35-2.54c0.29,0.15,0.51,0.7,0.51,1.07c-0.02,5.24,0.01,10.48-0.19,15.71
	c-0.14,3.54-1.59,6.57-5.18,7.74c-3.92,1.28-7.9,1.36-11.38-1.41c-1.88-1.49-2.71-3.69-2.78-5.94
	C70.03,230.32,70.14,224.65,70.14,218.82z"/>
<path d="M273.88,228.68c1.35-2.03,2.81-3.99,4.01-6.1c1.96-3.46,4.92-4.3,8.87-3.67c-0.35,0.62-0.6,1.14-0.92,1.62
	c-2.07,3.05-4.11,6.12-6.25,9.12c-0.66,0.93-0.62,1.59,0.05,2.49c2.34,3.16,4.61,6.38,6.9,9.58c0.35,0.49,0.67,1,1.03,1.54
	c-4.36,1.07-6.85,0.14-9.31-3.37c-1.47-2.1-2.92-4.2-4.82-6.28c0,1.12,0,2.24,0,3.36c0,0.87,0.02,1.75-0.01,2.62
	c-0.1,3.04-1.08,3.98-4.14,3.98c-0.55,0-1.1,0-1.84,0c0-2.71,0-5.25,0-7.79c0-4.06,0-8.12,0-12.18c0-4.28,1.29-5.35,5.94-4.66
	c0,3.19,0,6.44,0,9.69C273.55,228.64,273.71,228.66,273.88,228.68z"/>
<path d="M233.94,243.56c-1.11,0-1.85,0-2.59,0c-2.82-0.01-3.69-0.57-4.4-3.28c-0.35-1.34-0.95-1.88-2.32-1.71
	c-0.8,0.1-1.63,0.08-2.43,0c-2.33-0.23-4.21-0.09-4.73,2.91c-0.14,0.82-1.71,1.63-2.78,2c-0.98,0.34-2.17,0.07-3.52,0.07
	c0.53-1.79,0.95-3.26,1.4-4.74c1.57-5.19,3.15-10.37,4.73-15.56c1.18-3.87,4.84-5.78,8.65-4.48c0.29,0.1,0.62,0.44,0.71,0.74
	C229.06,227.42,231.45,235.32,233.94,243.56z M222.71,224.76c-0.15,0-0.31,0-0.46,0c-0.81,2.98-1.63,5.96-2.49,9.11
	c1.9,0,3.57,0,5.41,0C224.32,230.7,223.51,227.73,222.71,224.76z"/>
<path d="M12.45,242.82c0-0.62-0.04-1.11,0.01-1.6c0.24-2.44,1.59-3.33,4-2.82c1.51,0.32,3.06,0.61,4.6,0.62
	c1.34,0.01,2.64-0.54,2.97-2.09c0.34-1.59-0.71-2.46-1.96-3.02c-1.19-0.53-2.45-0.91-3.71-1.28c-3.96-1.18-5.71-3.5-5.5-7.37
	c0.2-3.75,2.31-6.24,6.31-6.66c2.74-0.29,5.56,0.16,8.35,0.23c1.66,0.04,2.12,0.81,1.82,2.39c-0.36,1.9-1.31,2.94-2.88,2.79
	c-0.61-0.06-1.21-0.36-1.82-0.42c-1.23-0.11-2.53-0.36-3.69-0.1c-0.81,0.18-1.89,1.03-2.04,1.75c-0.14,0.69,0.56,1.91,1.24,2.33
	c1.31,0.8,2.83,1.27,4.31,1.74c4.32,1.37,5.97,3.76,5.58,8.24c-0.3,3.47-2.79,5.81-6.77,6.35C19.61,244.41,15.45,244,12.45,242.82z"
	/>
<path d="M258.36,219.04c0.56,3.19-1.52,5.41-4.61,4.53c-3.36-0.96-5.86,0.73-6.45,4.16c-0.37,2.17-0.43,4.49-0.1,6.66
	c0.56,3.77,3.04,5.22,6.77,4.35c3.13-0.73,4.53,0.29,4.55,3.45c0,0.46-0.56,1.23-0.98,1.33c-3.45,0.81-6.95,0.94-10.36-0.13
	c-3.07-0.96-5.09-3.17-5.94-6.24c-1.07-3.85-1.1-7.81,0.05-11.63c1.07-3.57,3.52-6,7.25-6.87
	C251.83,217.89,255.1,218.12,258.36,219.04z"/>
<path d="M165.02,243.35c0-6.39,0-12.69,0-18.66c-2.13-0.69-4.23-1.02-5.88-2.07c-0.69-0.44-0.42-2.39-0.62-3.9c3.19,0,6.05,0,8.91,0
	c1.88,0,3.75-0.01,5.63,0c4.03,0.02,4.79,0.9,4.3,5.22c-1.98,0-4,0-6.28,0c0,1.66,0,3.07,0,4.49c0,3.37,0,6.74,0,10.12
	C171.07,243.13,169.9,244.1,165.02,243.35z"/>
</svg>
