<?xml version="1.0" encoding="utf-8"?>
<!-- Generator: Adobe Illustrator 26.5.0, SVG Export Plug-In . SVG Version: 6.00 Build 0)  -->
<svg version="1.1" id="Layer_1" xmlns="http://www.w3.org/2000/svg" xmlns:xlink="http://www.w3.org/1999/xlink" x="0px" y="0px"
	 viewBox="0 0 300 300" style="enable-background:new 0 0 300 300;" xml:space="preserve">
<path d="M183.41,98.48c0-1.53,0-2.84,0-4.14c0-23.91-0.01-47.81,0-71.72c0-8.81,1.71-9.93,9.81-6.57
	c38.48,15.96,63.52,43.86,72.41,84.6c9.19,42.11-2.03,79.19-32.14,110.04c-25.06,25.67-50.75,50.73-76.18,76.04
	c-5.15,5.13-9.51,5.12-14.66-0.01c-25.69-25.58-51.5-51.03-77-76.79C8.4,152.1,24.92,55.11,98.04,19.6
	c19.5-9.47,40.23-13.07,61.86-11.29c0.96,0.08,1.9,0.28,3.82,0.57c-0.49,11.13-0.26,22.25-1.64,33.17
	c-1.47,11.56-7.39,16.2-19.07,17.35c-41.57,4.1-72.21,34.75-75.86,75.92c-3.98,44.83,29.98,85.17,74.9,88.96
	c44.98,3.79,83.81-26.3,90.03-70.6c3.94-28.05-4.77-52.29-25.04-72.24c-0.74-0.73-1.63-1.3-3.22-2.54c0,2.12,0,3.4,0,4.68
	c0,13.8-0.02,27.6,0,41.4c0.06,41.02-37.49,69.19-74.24,63.91c-25.97-3.73-40.43-27.58-30.88-52.05
	c9.04-23.16,27.17-35.87,50.84-41.33c10.85-2.5,21.56-1.66,31.93,2.56C181.9,98.25,182.4,98.27,183.41,98.48z"/>
</svg>
